<?xml version="1.0" encoding="UTF-8"?>
<svg id="_Слой_1" data-name=" Слой 1" xmlns="http://www.w3.org/2000/svg" viewBox="0 0 332.25 272.4">
  <defs>
    <style>
      .cls-1 {
        fill: #fff;
      }
    </style>
  </defs>
  <path class="cls-1" d="m89.2,130.79c-2.27-.12-4.29-.28-5.81-2.02.83-1.89,3.23-1.99,4.19-3.72.52-1.1-.03-2.32.51-3.52.91-2.01,2.39-3.19,4.42-3.73,3.69-.98,7.21-2.22,9.85-5.2,1.24-1.4,2.64-2.66,4.16-4.19-.43-4.25.19-8.35,4.21-10.83,1.46-4.26.94-8.42,1.04-12.32-.39-.62-.86-.33-1.13-.5-.41-.27-.72-.69-1.02-.98v-8.7h8.38c1.25-.73,1.3-1.66,1.29-2.71-.04-4.75-.02-9.5-.02-14.25v-22.75h19.05c.53-.53.79-.79,1.19-1.19V1.2c.7-.88,1.35-1.23,2.34-1.2,2.86.08,5.73.03,8.76.03v20.53c.74.66,1.4,1.23,2.09,1.85,2.83.9,5.57-.89,8.53-.67,2.86.21,5.75.05,8.71.05.29.33.61.7,1.12,1.28v11.36h3.66V7.96c.53-.53.79-.79,1.18-1.18,1.45,1.57,3.24,2.81,4.12,5.34v8.81c1.92.25,3.89.07,5.84.1,1.98.03,3.96,0,5.79,0,.42.42.68.68,1.08,1.08v31.5c.4.4.66.66,1.05,1.05h6.41v-10.27h4.59v28.32c0,1.1-.27,2.29,1.22,3.01h4.43c.47.61,1,1.29,1.85,2.38v2.55c.57.57,1.02,1.02,1.48,1.48v3.76c-.47.5-.98,1.03-1.56,1.64.83,3.02-1.26,5.89-.58,8.97.27.27.53.53.93.93h13.5c.49.49.84.84,1.23,1.23,0,.45.02.95,0,1.44-.1,1.84.56,3.86-.29,5.49-1.15,2.2-2.75,4.16-4.4,6.08-2.56,3-4.88,6.21-7.31,9.33-1.57,2.01-3.75,3.49-4.95,5.82-.18.35-.29.64-.29,1.02.46.63.94.59,1.49.08.61-.56,1.49-.63,2.1-1.3,1.6-1.75,3.09-3.79,5.07-4.95,2.11-1.24,3.32-3.25,5.27-4.61.51.08,1.15-.27,1.69.22-1.06,1.95-2.7,3.49-3.77,5.46-1,1.84-2.89,3.11-3.71,5.04.58.78,1.26.4,1.81.51,3.47-2.58,5.62-6.76,10.54-8.59-.97,2.94-1.99,5.1-4,6.66.09.88-.25,1.76.4,2.83,3.49-1.65,5.53-5.22,9.06-6.81.63.5.5,1.54.12,1.86-1.66,1.35-1.7,3.72-3.38,5.02-.43.34-.22.88.39,1.51,2.44-2.09,4.96-4.11,7.32-6.3,2.56-2.38,4.97-4.93,7.46-7.42h1.51c4.64,4.26,7.68,9.94,12.3,14.54v24.64c.77.81,1.37,1.45,1.96,2.08,1.25-.5,2.15.41,3.04.84,4.26,2.1,8.46,4.34,12.64,6.6,1.33.72,3.09.45,4.09,1.8v4.89H48.93v-4.96c1.79-1.48,4.26-2.29,6.5-3.5,3.37-1.82,6.89-3.27,10.5-4.54.44-.15.82-.47,1.33-.41,3.81.42,7.43-1.63,11.02-.59.58-.61.91-.96,1.25-1.32-2.97-1.14-6.19-1.35-9.56-3.25,3.96.25,7.11-1.56,10.43-.71.65-.6,1.44-.87,1.38-2.07-2.53-.74-5.14-1.34-7.88-1.02-.34-.92-1.37-.54-1.84-1.13.18-.13.35-.37.53-.38,1.43-.07,2.83.06,4.21-.72,1.44-.82,3.15-.97,4.6-.79.49-.49.75-.75,1.02-1.02-1.56-1.75-3.7-1.05-5.42-1.25-.51-.44-.88-.76-1.3-1.12,2.8-.69,5.52-1.36,8.82-2.18-.87-.32-1.34-.49-1.8-.67l.34-.48h-2.96c-.61-.51-.99-.82-1.38-1.16,3.4-1.57,7.28-1.07,10.68-2.75-1.95-2.2-5.05-.52-6.86-2.67,2.55-.31,4.47-1.96,6.66-2.95h0Zm36.07-25.77h-3.33c-.97-.75-1.59-1.89-2.45-2.25-.64,0-.93-.08-1.14.01-2.01.89-3.72,2.4-6.18,2.37-.68,0-2.15.57-2.59,1.71-.69,1.8-2.02,3.16-3.05,4.73-2.37,3.6-5.35,6.51-9.61,7.59-1.05.26-1.99.7-2.94,1.08-2.48.98-3.59,2.87-3.12,5.44,1.1,1.45,2.9,1.41,4.05,2.55,1.13-1.58,3.09-1.86,4.58-2.88l.54.54c.49.15.51-.8,1.07-.44.16.45.31.89.45,1.31,2.08,0,4.3-.54,6,.17,1.43.59,2.95.5,4.38,1.2,1.3.64,3.16.14,4.72.14l1.03-1.03c-.23-.88-1.43-1.02-1.39-2.34,1.64-.53,2.5-2,3.53-3.43,1.01-1.41,3.3-1.33,4.34-2.96.13-.2.25-.4.45-.71v-2.08c.75-.71,1.47-1.4,2.18-2.07v-1.56c1.23-.94,1.97-2.5,3.68-2.88.04-.59.24-1.19-.19-1.88-1.66-.67-3.26,1.86-5,.31,0-.87,0-1.75-.3-2.53.79-.23,1.45.25,1.81-.72-.57-.09-1.07-.36-1.51.62h0Zm27.34-36.76c5.31,0,10.67.07,16.03-.05,1.43-.03,2.67.39,3.69,1.06,3.84,2.56,7.56,5.31,11.32,7.98,5.12,0,10.24-.01,15.36,0,1.01,0,2,.08,2.68-1.16v-15.7c-.39-.44-.71-.81-1-1.14h-6.8c-.63.63-1.25,1.25-1.87,1.86.26,1.95-1.41,3.17-1.84,4.96-.38-.44-.71-.8-1.2-1.36V27.01c-2.95-1.46-5.98-.45-9.07-.67v11.67c-.39.39-.66.66-1.05,1.05h-27.21v14.28c2.07-.15,3.92.12,5.82.61,1.64.42,3.48,0,5.22.11,1.56.09,3.12-.34,4.69.41,1.59.76,3.41.16,5.11.33.47.05,1.2-.42,1.41.5-6.73.83-13.52.66-20.49,1.96,2.47,1.07,4.67,1.5,7,1.29,1.12-.1,2.25.02,3.37-.03.97-.05,1.51.44,1.82,1.2-2.34,1.34-4.91,1.1-7.43,1.03-1.61-.04-3.07.24-4.41,1.15.42.67,1.35.81,1.83.94,1.4.36,2.95.2,4.43.18,1.1,0,2.19-.09,2.69,1.53-3.28,1.55-6.81.25-10.17.83-.29.45-1.02.65-1.04,1.34-.02.79.73.98,1.1,1.56h0Zm37.93,23.05c-3.13,1.06-4.99-2.11-7.55-2.06-1.74.42-1.24,1.99-1.68,2.94-1.63-.45-.95-2.09-1.19-2.4-1.98-2.17-3.95-2.08-5.59-2.02-1.75-.88-.78-3.08-2.19-3.62h-4.83c-.4.4-.66.66-1.06,1.06v4.53c-1.09.49-2.03.92-2.88,1.31-.6,2.17,1.58,2.66,2.27,4.23v3.44c.52.52.96.96,1.4,1.4.26,1.97-.67,3.63-1.39,5.36.42.42.92.82,1.29,1.32.31.41-.05,1.32.93,1.23,1.8-.62,2.34-2.42,3.2-3.76.94-1.47,2.07-2.62,3.16-3.76,2.5.23,3.28,2.27,4.42,3.79h3.07c.38.38.73.73,1,1-.69,1.34-1.36,2.65-2.05,3.99.83.39,1.51.38,2.34-.25.8-.61,1.83-.31,2.75-.03,0,1.01.49,1.58,1.32,1.9.62-.62,1.14-1.43,1.88-1.81.8-.41,1.51-1.1,2.55-1.09.83,0,1.73.35,2.38-.17.81-1.44-.96-2.26-.44-3.97,1.24-.46,1.2-2.36,2.48-3.32.94-.31,1.73.22,2.53.68.19-1.12.26-1.97-.63-2.55.7-.4.61-1.25.53-1.13,3.35-2.6,6.66-2.26,9.74-2.26.69-1.71-1.29-1.84-1.29-3.23,1.62-1.65,1.68-3.9,1.43-6.22-.86-.73-.97-1.85-1.48-2.76.28-.54,1.01-.83.75-1.68-.26-.27-.6-.63-1.01-1.07-1.11,0-2.29-.25-3.49.19.36.8,1.35.19,1.61,1.21-.66,2.47-3.82,1.2-4.88,3.05-1.23-.76-1.12-2.32-2.51-3.09-2.9.58-6.07,1-8.41,3.38v3.81c.47.74,1.49,1.02,1.51,2.45v-.02Zm-35.53,13.06c.37.37.76.6.88.92.16.44.13.96.12.89,1.2,1.18,2.11,2.08,2.7,2.67.21-.07.69-.21.98-.3-.55-1.05-.98-1.88-1.32-2.51v-4.26c1.81.86,3.03-.28,4.38-.91v-5.24c-.48-.6-1.51-.23-1.78-.95-2.71-1.05-5.19,1.36-8.24.26.79-.53,1.39-.93,2.06-1.38-1.14-.59-.95-1.63-1.56-2.26-.62-.63-1.69-.42-2.11-1.29-2.34.52-3.64-1.46-5.44-2.25-4.38,0-7.44.61-9.17,1.83-.04,1.64.28,3.53-1.24,4.95-1.6-.31-2.89.36-4.03,1.11,1.13,1.11,2.09,2.05,3.44,3.37-.02,0,.73,0,1.46,0,.36.36.72.71,1.06,1.07.07.07.04.23.11.73-1.38,1.95-1.08,4.94-3.12,7.07v2.94c-1.49.97-2.96,1.92-4.47,2.9.47,3.46-3.28,3.97-4.44,6.2-.51,1.22.49,1.63,1.1,2.35,1.1-1.27,2.31-2.66,3.93-2.93,1.76-.3,3.65-.25,5.38.04.19.84-.2,1.5.35,2.04h3.29c.64-1.22,2.33-1.61,2.41-3.18.1-1.89,1.39-2.99,2.56-4.16,1.39-.4,3.24.71,4.16-1.47-1.43.02-2.57-.53-3.76-1.24.49-.38.93-1.03,1.42-1.06,1.81-.11,3.27-1.26,4.99-1.57.11-.02.17-.32.26-.49-1.04-.38-2.15-.65-2.15-1.99.52-1.22,1.92-1.09,2.55-1.89h3.24Zm-26.01-34.13c.35-2.27,1.99-4.49,1.63-6.25,1.01-1.02,1.57-1.59,2.08-2.11v5.17c.49.5.84.85,1.26,1.29.94-3.2,1.28-6.4,1.55-9.36.18-.44.35-.88.53-1.32.17.07.33.14.5.21v3.33c.71.63,1.03,1.25,2.28.95-.71-1.84,1.09-3.38.67-5.35-.43-2.01,1-3.77.72-5.68-.29-2.02,1.21-3.75.76-5.69-.46-1.95,1.61-3.61.6-5.47-.37-.37-.64-.64-.83-.83h-17.74c0,6.96.13,13.82-.06,20.66-.09,3.2.54,6.17,1.55,9.13.34,1,.78,1.75,2.15,1.5v-3.96c.77-.49,1.07-1.72,2.34-.88v4.68-.02Zm4.41,95.29v-13.03l-.93-.93h-21.91c-.38.4-.69.74-1.02,1.09,1.12.88,2.62-.25,3.72.75-4.94,1.6-10.1,1.53-15.16,2.8.53.51.89.85,1.33,1.28,2.38-.29,4.6.94,7.35.98-1.92,1.35-4.04,2.03-5.99,2.02-1.92-.02-3.86-.16-5.68,1.3,1.38.25,2.39,1.3,3.82.95,1.51-.37,2.69.97,4.18.76,1.53-.22,2.68.83,4.56,1.08-.98.35-1.41.51-2.19.79,1.69.66,2.99,1.19,4.61,1.17,6.36-.1,12.71-.08,19.07,0,1.48.02,2.82-.27,4.25-1h-.01Zm3.15-31.96c-1.5,2.49-.6,5.26-.74,7.88-.15,2.73-.03,5.48-.03,8.22s-.06,5.48.02,8.22c.08,2.63-.34,5.29.25,7.83,2.01.24,1.49-2.26,3.16-2.26.59.96.1,2.51,1.67,3.04h8.78l1.12-1.12c0-1.31-.15-2.7.04-4.04.21-1.53-.92-2.69-.81-4.18.49-7.02-1.24-13.96-.73-20.99.03-.37,0-.75,0-1.12.04-.76-.71-.94-1.03-1.48h-11.7Zm40.34,25.51v5.42c.75.75,1.37,1.36,2.09,2.08,2.73-.58,5.78.81,8.36-.82.79-7.18-.57-13.98-.8-20.83,0-.27-.5-.53-.76-.8-1.51,1.15-3.19.41-4.56.62-1.48-1.03-1.29-2.25-1.1-3.48,1.84-1.34,2.25-1.51,4.17-1.7.15.42.19.99.49,1.26.58.5.46,1.08.5,1.69.06.96.67.79,1.45.54.45-2.88-1.43-5.61-.66-8.39-.4-.4-.64-.85-.94-.9-3.57-.59-7.17-.09-10.95-.31.14,1.35-1.23.39-1.57,1.04v31.11c1.04.2,1.97.32,3-.19v-6.33h1.28Zm76.63,6.26c0-3.19-.12-6.44.03-9.67.16-3.32-1.33-6.46-.81-9.8.09-.55.28-1.23.04-1.49l-1.2-1.2c-.42.58-.85,1.16-1.04,1.43h-3.58c-.67-1.11-.65-2.53.06-4.24,1.07-.06,1.79-1.33,3.02-.86.57.47,1.15.95,1.91,1.59v-6.84c-4.54-1.1-8.99-1.38-13.32.15v31.22c1.05.12,2,.37,3.02-.28v-3.95c.52-.19.57-.9,1.32-.7v3.54c.83.99,1.38,1.66,1.87,2.24h7.03c-.08-1.24,1.26-.33,1.65-1.13h0Zm-17.38.15v-13.01l-.9-.9h-20.54c.09.12.18.25.28.37-.44.19-.87.37-1.31.56.06.16.13.33.19.49h4.34c-3.92,1.68-7.15,2.68-10.65,2.22-2.78-.36-5.28.94-8.3.96,1.68,1.26,3.2,1.42,4.79,1.31.75-.05,1.86-.32,2.18.05.86.98,2.82-.12,3.17,2.02-1.65-.14-2.84,1.09-4.47.94-2.12-.2-4.2,0-6.13,1.17,2.17,1.11,4.5.86,6.73,1.2,1.1.17,2.41.26,3.39.76,1.34.67,2.38-.71,3.56-.13.19.09.33.27.34.29-.14,1.18-1.39.98-2.01,1.7,1.22.28,2.1,1.08,3.43,1.06,6.99-.11,13.98-.05,20.9-.05l.99-.99.02-.02Zm-146.85-19.08c.81,1.49,1.84,1.32,2.82,1.32h40.29l1-1v-4.74l-.83-.83h-43.28v5.26h0Zm105.98,1.18h40.01l1.04-1.04c-.47-1.73.89-3.86-1.1-5.51h-39.89c-1.99,1.64-.63,3.78-1.1,5.51l1.04,1.04h0Zm-83.42-66.17c.59.73,1.21,1.09,2.21,1.09,9.34-.06,18.69-.06,28.03.01,1.06,0,1.8-.48,2.69-.77.91-.29,2.02.32,3.43-.68h-4.47l-1.18-1.18c.49-.85,1.34-1.2,2.29-1.78-.95.21-1.46-.3-1.95-.88h-28.01c-1.08,0-2.29-.32-3.04,1.15,0,0,0,3.04,0,3.04Zm47.77,85.11c3.62-.52,7.62.88,11.33-.98v-13.21h-8.61c-.29.74-1.28.43-1.77.97.15.73-.34,1.13-.68,1.44-.48,1.6.34,3.13-.76,4.73-.79,1.15.43,3.05-.79,4.53-.48.58-.03,1.66,1.28,2.53h0ZM141.91,3.17v31.22c1.54,1.17,2.92,1.45,4.3-.18V3.35c-1.39-1.63-2.76-1.35-4.3-.18Zm-11.59,82.49h-14.55l-.91.91v9.24c1.36.64,2.99-.4,4.07.86.95-.77,2.54-.94,2.85-2.11.43-1.65,2.47.14,2.89-1.7.17-.73,2.06-.92,2.77-1.71,1.28-1.43,3.55-2,3.87-4.41-.27-.3-.58-.65-.97-1.09h-.02Zm42.3-7.9c-2.29,0-3.95-1.64-6.02-1.2-.06-1.14-.1-1.98-.16-3.08-1.67.32-3.08-.2-4.4-1.04.52-.89,1.71.11,2.29-.9-4.22-.53-8.34-1.5-12.71-.81v5.23c-.57,1.02-1.94,1.26-1.44,2.7h20.49c1.1-.51,1.53-.71,1.96-.9h0Zm76.19,42.5c-2.44.84-3.57,2.62-4.86,4.37-1.36,1.86-3.24,3.35-4.7,4.81.05,1.11.77,1.31,1.06,1.76h12.28c-.09-.13-.19-.25-.28-.38.44-.18.87-.37.98-.41.06-.69-.6-.67-.35-1.16l1.34-1.34c-.99-.5-1.98-1-3.01-1.52.98-.65,1.11-1.78.58-2.29-1.25-1.2-1.58-3.06-3.04-3.85h0Zm-62.62,6.27c-.41-.93.15-1.82-.42-2.61-1.4-1.09-1.57-3.3-3.76-3.99-2.88,3.17-5.81,6.39-8.72,9.62-.06.07,0,.24,0,.74.31.16.85.45,1.9,1,3.21-.27,7.28.71,11.37-.94.48-.63,1.64-1.07,1.79-2.25-.51-.84-1.66-.56-2.14-1.58h-.02Zm-36.75-1.08c-1.39-2.01-2.63-3.79-3.86-5.56-4.06,2.98-6.37,7.17-9.8,10.32l1.01,1.01h12.19c1.08-.92,1.41-2.06,1.93-3.46-1.09.04-1.79-.56-2.35-1.32.24-.27.49-.54.89-.98h0Zm8.21,16.6v4.76l.99.99c3.3,0,6.67-.04,10.03.03.98.02,1.65-.31,2.28-1.1v-4.61l-.96-.96h-11.45l-.89.89h0Zm32.75,15.79v-23.71c-.76.45-1.5-.21-2.12.54.02,2.89-.35,5.83.73,8.63-.49,4.66,1.27,9.2.76,13.87,0,.08.16.18.62.68h.01ZM156.02,28.16c.25-.71,1.66.05,1.48-1.36-.16-.24-.4-.61-.67-1.01.94-.5,2.49.08,2.77-1.55-2.39-.77-4.79-1.37-7.22-.79v6.54c1.3,0,2.5.25,3.63-.18v-1.65h0Zm98.44,106.2c-.92,3.36,1.06,6.22.55,9.27-.34,2.02.62,3.72,1.39,5.5v-14.77h-1.94Zm-101.56,14.78v-14.68c-.8-.18-1.51-.46-2.12.18.07,1.66-.06,3.25.62,4.94.56,1.39.27,3.2.07,4.79-.22,1.78.86,3.17,1.43,4.77h0Zm61.66-42.61c-.17-1.5.15-3-.2-4.37h-4.14v4.37h4.34Zm-72.04-38.39c.26,0,.52.01.77.02-.43-6.18,1.65-12.3.12-18.54.73,3.1-1.16,5.86-.94,8.92.22,3.18.05,6.39.05,9.59h0Z"/>
  <path class="cls-1" d="m15.02,223.16c.71.71,1.24,1.24,2.17,2.17.22-.42.54-.81.65-1.25,1.04-4.31,3.5-8.06,4.82-12.26.13-.41.54-.7.65-1.24.6-2.99.63-2.98,2.62-5.08,2.23.47,4.78-.82,7.02.87v27.36c-1.32,1.89-3.23.72-4.75,1.1-.44-.44-.79-.79-1.17-1.17,0-4.35-.05-8.72.04-13.09.02-1.02-.38-1.63-1.09-2.21-1.99,1.11-1.51,3.54-2.67,5.1-.18.24.13.86-.05,1.09-2.19,2.72-2.06,6.41-3.99,9.38h-5.52c-.4-2.7-1.74-5.22-2.72-7.77-.93-2.41-1.33-5.36-3.52-7.2-.28.13-.4.16-.49.24-.09.07-.22.18-.22.28-.01,4.74,0,9.49,0,14.2-.39.39-.74.74-1.11,1.11H1.1c-.28-.32-.6-.7-1.08-1.24,0-8.41.02-17.02-.02-25.63,0-.96.23-1.67,1.11-2.31h5.29c2.73.95,3.73,3.44,4.03,6.18.1.93.58,1.73.93,2.24,1.67,2.45,2.07,5.44,3.63,7.9.17.27.02.74.02,1.23h0Z"/>
  <path class="cls-1" d="m85.32,216.79c-1.41.77-1.31,1.78-1.31,2.78.02,4.73,0,9.46,0,14.11-1.55,1.17-3.21,1.23-4.91,1.07-.36-.36-.71-.71-1.09-1.09v-25.06c0-1.1-.25-2.29,1.16-2.98,1.93-.38,3.91.05,6.11.91.01,1.48,1.68,2.13,2.52,3.43,2.04,3.14,3.53,6.6,5.85,9.62.88,1.14,1.94,2.05,2.7,3.26.37-.37.64-.64,1.03-1.03v-16.14c2.04-.23,3.97-.06,6.02-.13v28.26c-.26.26-.61.61-.99.99h-4.5c-2.91-2.36-4.37-5.87-6.56-8.83-2.17-2.92-4.03-6.08-6.04-9.14v-.03Z"/>
  <path class="cls-1" d="m313.54,206.58v10.03h11.02c.76-.54,1.01-1.26.99-2.21-.07-2.61-.02-5.21-.02-7.74l1-1h4.75l.97.97v26.91c-1.65,1.48-3.66,1.34-5.69,1.15-.26-.26-.53-.53-.92-.92v-10.5l-1.05-1.05c-3.46,0-6.79-.02-10.13.03-.27,0-.53.49-.92.88v10.47c-1.68,2.1-3.84.75-5.59,1.23-.44-.44-.79-.79-1.18-1.18v-25.39c0-.98-.27-2.07,1.54-2.62,2.27-.11,4.01.2,5.22.93h.01Z"/>
  <path class="cls-1" d="m198.15,206.53l1.04-1.04c1.73.46,3.85-.89,5.57,1.15v10.01h12.01v-10.01c1.74-2.04,3.86-.7,5.85-1.23v28.31c-1.29,1.31-3.09,1.07-4.71,1.03-.87-.69-1.19-1.38-1.17-2.34.07-3.11.02-6.22.02-9.26l-1-1h-10.91c-.23,1.79-.05,3.76-.08,5.71-.03,1.98,0,3.96,0,5.8-1.74,2.04-3.86.7-5.58,1.16l-1.04-1.04v-27.25h0Z"/>
  <path class="cls-1" d="m266.99,216.37c.19-2.24-.13-4.38.67-6.55.48-1.28,1.15-2.24,2.14-2.73,2.63-1.29,5.26-2.54,8.4-2.38,1.48.08,2.69,1.08,4.17.83.49,1.25,1.83.39,2.75,1.18.94,1.49,2,3.16,3.09,4.89-.43.49-.74.84-1.15,1.31h-5.54c-.86-.86-1.83-1.83-2.8-2.8-1.93-.36-3.53.27-4.9,1.75v2.31c1.1,1.22,2.39,2.21,4.29,2.69,1.97.51,3.93,1.36,5.78,2.25,2.04.97,3.95,2.3,4.81,4.66v3.65c-1.23,3.21-3.17,5.49-6.66,6.71-3.45,1.21-6.6.38-9.71-.19-1.7-1.7-3.36-3.36-5.27-5.27,0-.31-.25-1.17.2-2.06h7.05c.09,1.37,1.27,1.98,2.02,2.91h3.1c.51-.59,1.08-1.24,1.72-1.99v-3.06c-2.32-1.85-5.13-2.35-7.78-3.12-2.11-.61-3.94-1.27-4.91-3.43-.24-.53-.85-.9-1.5-1.55h.03Z"/>
  <path class="cls-1" d="m165.06,211.88v2.33c.82.75,1.74,1.59,2.5,2.28,4.1,1.71,8.59,2.25,11.72,5.99,0,1.56-.03,3.29,0,5.03.04,1.52-.28,2.93-1.51,3.86-2.25,1.71-4.6,3.28-7.58,3.41-2.43.1-4.84.1-7.55-1.28-1.56-1.82-4.32-3.45-5.28-6.8h7.59c.89.32.57,2.05,2.21,2.73h3.68c.28-.49.77-1.36,1.27-2.23.13.13.27.26.4.4v-1.56c-1.09-1.1-2.03-2.05-3.23-3.26-1.84-.22-4.07-1.12-6.25-1.81-2.01-.63-3.63-2.56-4.76-4.94v-5.08c.68-2.16,1.95-3.3,3.26-4.52,1.4,0,2.57-.79,4.16-1.61,4.72-.21,9.56.23,12.82,5.02-.11.77.12,1.52.73,2.24-1.93,1.84-4.28.56-6.29,1.02l-3-3c-1.95-.32-3.53.36-4.89,1.8v-.02Z"/>
  <path class="cls-1" d="m138.7,217.4v4.53h-8.45l-1.2,1.2v5.34c.29.24.68.55,1.3,1.06h9.8v4.24l-.91.91h-15.19c-.36-.36-.63-.63-1.12-1.12,0-8.6,0-17.42-.03-26.25,0-.24-.38-.49-.58-.72.34-.34.6-.6.86-.86,8.59-.61,14.14-.4,16.93.69v3.38l-.98.98h-9l-1.04,1.04v4.68l.91.91h8.7Z"/>
  <path class="cls-1" d="m221.61,252.03c4.17,3.28,4.97,6.91,4.87,10.85-.11,4.3-2.51,7.29-6.99,9.39-4.35.61-8.45-.81-10.97-5.78,0-2.34.09-4.83-.02-7.31-.14-3.02,1.42-4.92,3.81-6.41,2.69-1.68,5.45-2.16,8.41-.76.2.1.49,0,.9,0h0Zm.41,7.58c-.75-1.79-1.48-3.02-2.69-3.79h-4.34c-3.28,2.22-2.74,5.5-2.69,8.14,1.48,2.89,3.05,5.12,6.21,4.56,1.8-1.05,2.06-3.12,3.51-4.14v-4.77Z"/>
  <path class="cls-1" d="m242.4,205.61h5.46c1.47.75,1.15,1.96,1.15,3.05v23.25c-.64.84-.67,2.07-2.01,2.78h-3.71l-.89-.89v-28.18h0Z"/>
  <path class="cls-1" d="m82.52,255.46c2.17-2.4,4.29-4.63,8.01-4.24,2.48.26,4.68.73,6.19,2.66v1.6c-1.4.47-2.42,1.54-4.26.44-1.28-.76-3.39-.15-5.09-.15-.35.56-1.09.75-1.1,1.48.09.22.11.48.26.64,1.9,1.94,4.58,2.24,6.96,3.03,1.49.49,3.02.78,4,2.02,1.03,1.3.8,2.96.78,4.52,0,.24-.03.49-.14.63-.3,2.31-2.65,2.57-3.89,4.1h-6.84c-2.06-.69-3.33-2.66-5.02-4.14.86-1.11,1.98-1.7,3.37-1.79,1.23,1,2.68,2.8,4.15,2.1,1.51-.73,3.89.37,4.71-2.34-.98-.38-1.91-1.04-2.61-1.9-3.89-.34-7.69-.77-9.49-5.33v-3.34h0Z"/>
  <path class="cls-1" d="m65.44,267.65c1.86,1.54,1.62,2.65.27,3.81h-12.14c-.28-.28-.54-.54-.93-.93v-17.5c.22-.21.58-.56,1-.95h11.89c.99,1.1,1.08,2.3.27,3.59h-8.3c-.48.48-.83.83-1.18,1.18-.07,1.21-.41,2.49,1.15,3.43h6.69c.66.91.11,1.81.5,2.77-2.78.72-5.74-.54-8.31,1.24v2.46c.24.24.51.51.9.9h8.19Z"/>
  <path class="cls-1" d="m52.65,205.63h4.84c.3.3.66.66.95.95v27.16c-.34.34-.61.61-.96.96h-3.93c-.25-.25-.51-.51-.91-.91v-28.16h0Z"/>
  <path class="cls-1" d="m249.97,267.74h4.91v3.73h-13.23v-3.63c3.46-2.34,6.54-5.52,9.61-8.69v-2.24l-1.09-1.09h-3.74c-.54.21-.33.8-.51,1.2-1.46.95-2.4-.47-3.62-.76v-1.54c1.11-1.39,2.41-2.62,4.46-3.43h3.37c.91.99,2.3,1.12,3.36,1.84,1.04.71.66,2.47,2.2,2.72v3.92c-1.48,2.81-4.03,4.91-6.28,7.26.19.24.37.47.56.71h0Z"/>
  <path class="cls-1" d="m187.2,255.03h-2.39c-.59.72-1.29,1.59-1.82,2.24h-2.59c-.6-.61-1.4-1.11-1.04-2.42,0,.03.02-.21.14-.4,1.23-2.03,3.54-2.34,5.45-3.09,2.32-.91,6.4,1.26,7.35,3.58,1.18,2.89.55,5.65-1.19,8.07-1.06,1.46-2.54,2.62-4.12,4.21,2.13.93,4.26.21,5.8,1.68,0,.4.12.93-.03,1.36-.16.43-.59.76-.95,1.19h-12.39c-.23-1.66-.41-3.29,1.15-5.06,3.39-1.95,6.81-4.62,8.59-8.47-.25-1.62-1.34-1.98-1.94-2.88h-.02Z"/>
  <path class="cls-1" d="m123.89,270.25c-1.79,1.97-3.14,1.46-4.59.38v-13.66c-1.67-2.09-3.83-.76-5.75-1.28-.27-.27-.62-.62-1.03-1.03,0-.44-.13-.98.04-1.41.16-.43.62-.74,1-1.16h16.08v3.56h-5.75v14.59h0Z"/>
  <path class="cls-1" d="m279.64,270.46c-1.02,1.52-2.29.9-3.57,1.13v-13.34c-1.82-.7-2.93.6-4.24,1.22l-1.06-1.06v-2.34c1.67-1.12,3.46-2.19,4.64-3.96h4.23v18.36h0Z"/>
  <path class="cls-1" d="m144.81,271.47h-2.77c-.5-.85-.17-1.73-.27-2.56.84-.87,1.84-.07,2.66-.44.58.98.24,1.85.38,3Z"/>
  <path class="cls-1" d="m170.9,48.72h-5v-4.25h5v4.25Z"/>
  <path class="cls-1" d="m157.48,44.28h4.34v4.37h-4.14c-.35-1.36-.03-2.87-.2-4.37Z"/>
  <path class="cls-1" d="m122.19,108.49c.32.52,1.37.3,2.3.53-1.19.74-2.39.42-3.82.04.43-.16.86-.32,1.52-.57Z"/>
  <path class="cls-1" d="m143.39,140.34h4.08c1.46,2.02,1.46,2.41,0,4.37h-4.08v-4.37Z"/>
</svg>